<svg xmlns="http://www.w3.org/2000/svg" viewBox="0 0 128 128" role="img" aria-label="satyata lens logo">
  <defs>
    <linearGradient id="grad" x1="0%" y1="0%" x2="100%" y2="100%">
      <stop offset="0%" stop-color="#1d4ed8"/>
      <stop offset="100%" stop-color="#2563eb"/>
    </linearGradient>
  </defs>
  <rect width="128" height="128" rx="24" fill="url(#grad)" />
  <circle cx="64" cy="64" r="34" fill="white" opacity="0.15" />
  <path fill="white" d="M64 40a24 24 0 1 0 0 48 24 24 0 0 0 0-48zm0 8a16 16 0 1 1 0 32 16 16 0 0 1 0-32z"/>
  <path fill="white" d="M64 24a40 40 0 1 0 0 80 40 40 0 0 0 0-80zm0 8a32 32 0 1 1 0 64 32 32 0 0 1 0-64z" opacity="0.35"/>
</svg>
